<svg width="61" height="60" viewBox="0 0 61 60" fill="none" xmlns="http://www.w3.org/2000/svg">
<path d="M14.808 22.4357C16.518 18.443 19.6356 15.2179 23.568 13.3737C25.9129 12.2783 28.4699 11.7116 31.058 11.7137H53.381C52.804 10.9557 52.191 10.2307 51.549 9.53269C50.907 8.83469 50.224 8.17069 49.512 7.53769C48.8 6.90469 48.066 6.31068 47.299 5.74768C46.532 5.18468 45.741 4.65969 44.923 4.17569C44.105 3.69169 43.272 3.24569 42.412 2.84169C41.552 2.43769 40.673 2.06969 39.78 1.74869C38.887 1.42769 37.98 1.14869 37.055 0.91669C36.13 0.68469 35.204 0.493689 34.265 0.349689C33.326 0.205689 32.382 0.103686 31.433 0.0496858C30.484 -0.00431421 29.533 -0.0153141 28.587 0.0216859C27.641 0.0586859 26.687 0.142688 25.751 0.267688C24.815 0.392688 23.873 0.567695 22.951 0.783695C22.029 0.999695 21.114 1.26269 20.212 1.56469C19.31 1.86669 18.431 2.21569 17.562 2.60669C16.693 2.99769 15.851 3.42469 15.023 3.89469C14.195 4.36469 13.396 4.8707 12.623 5.4197C11.85 5.9687 11.098 6.5497 10.373 7.1677C9.64799 7.7857 8.964 8.43668 8.304 9.12068C7.644 9.80468 7.021 10.5207 6.43 11.2687C5.839 12.0167 5.286 12.7847 4.77 13.5797C4.254 14.3747 3.77999 15.1977 3.34299 16.0437C2.90599 16.8897 2.506 17.7497 2.153 18.6287C1.8 19.5077 1.48799 20.4097 1.21799 21.3207C0.947995 22.2317 0.724999 23.1527 0.543999 24.0877C0.362999 25.0227 0.227995 25.9567 0.134995 26.9057C0.0419945 27.8547 0 28.7977 0 29.7517C0 30.7057 0.0459999 31.6517 0.139 32.5927C0.232 33.5337 0.366997 34.4807 0.547997 35.4107C0.728997 36.3407 0.956997 37.2657 1.227 38.1777C1.497 39.0897 1.808 39.9867 2.166 40.8697C2.524 41.7527 2.915 42.6087 3.356 43.4547C3.797 44.3007 4.27199 45.1197 4.78799 45.9147L14.808 22.4357Z" fill="#5E17EB"/>
<path d="M48.5643 23.1374H30.4393C29.9212 23.1371 29.4058 23.2123 28.9093 23.3604C28.4126 23.5081 27.9407 23.7292 27.5093 24.0164C26.6411 24.5919 25.9593 25.4078 25.5473 26.3644L23.1393 32.0184H52.2643C51.1801 34.561 49.3724 36.7288 47.066 38.2523C44.7597 39.7758 42.0564 40.5878 39.2923 40.5874H23.2643C22.1415 40.5859 21.0432 40.916 20.1073 41.5364C19.172 42.1554 18.4382 43.0345 17.9963 44.0654L13.4863 54.6294C14.7789 55.47 16.1342 56.2099 17.5403 56.8424C20.3588 58.1057 23.356 58.9244 26.4253 59.2694C32.6021 59.9584 38.8396 58.6949 44.2613 55.6564C45.6066 54.9041 46.8909 54.0474 48.1023 53.0944C50.5306 51.1846 52.6466 48.9084 54.3743 46.3474C55.2376 45.0701 55.9992 43.7269 56.6523 42.3304C57.9665 39.535 58.8341 36.5507 59.2233 33.4864C59.6145 30.4228 59.5268 27.317 58.9633 24.2804C58.6827 22.7639 58.2849 21.2714 57.7733 19.8164C55.1847 21.961 51.9289 23.1352 48.5673 23.1364L48.5643 23.1374Z" fill="#5E17EB"/>
<path d="M14.8088 22.4363C16.5187 18.4437 19.6363 15.2186 23.5688 13.3743C25.9137 12.279 28.4706 11.7123 31.0588 11.7143H53.3768C52.8001 10.9563 52.1894 10.2293 51.5448 9.53334C50.9001 8.83734 50.2228 8.17233 49.5128 7.53833C48.8014 6.90567 48.0638 6.30901 47.2998 5.74834C46.5328 5.19034 45.7418 4.66534 44.9238 4.18134C44.1058 3.69734 43.2688 3.24634 42.4088 2.84233C41.5488 2.43833 40.6748 2.07534 39.7818 1.75434C38.8888 1.43334 37.9818 1.15434 37.0568 0.922337C36.1318 0.690337 35.2058 0.499335 34.2668 0.355335C33.3278 0.211335 32.3838 0.109332 31.4348 0.0553324C30.4858 0.00133242 29.5348 -0.00466746 28.5888 0.0273325C27.6428 0.0593325 26.6888 0.148335 25.7528 0.273335C24.8168 0.398335 23.8788 0.573341 22.9528 0.789341C22.0268 1.00534 21.1118 1.26833 20.2138 1.57033C18.4142 2.18037 16.6767 2.96022 15.0248 3.89934C14.1974 4.36601 13.3974 4.87434 12.6248 5.42434C11.8521 5.97434 11.1034 6.55567 10.3788 7.16834C9.65377 7.79134 8.96577 8.44234 8.30477 9.12534C7.64377 9.80834 7.02177 10.5253 6.43577 11.2683C5.84977 12.0113 5.29176 12.7843 4.77576 13.5833C4.25976 14.3823 3.77577 15.2013 3.34377 16.0433C2.91177 16.8853 2.51177 17.7493 2.15377 18.6283C1.79577 19.5073 1.48877 20.4093 1.21877 21.3203C0.948765 22.2313 0.725769 23.1523 0.544769 24.0823C0.363769 25.0123 0.228768 25.9563 0.144768 26.9003C0.0607678 27.8443 0.00976562 28.8003 0.00976562 29.7463C0.00976562 30.6923 0.0557678 31.6463 0.144768 32.5923C0.233768 33.5383 0.372764 34.4753 0.553764 35.4103C0.734764 36.3453 0.962765 37.2613 1.23277 38.1723C1.50277 39.0833 1.81377 39.9813 2.16777 40.8593C2.52177 41.7373 2.92077 42.6033 3.35777 43.4493C3.79477 44.2953 4.27376 45.1093 4.78976 45.9093L14.8088 22.4363Z" fill="#FFA000"/>
<path d="M48.5627 23.1376H30.4387C29.9206 23.1373 29.4052 23.2124 28.9087 23.3606C28.4119 23.5082 27.94 23.7293 27.5087 24.0166C26.6405 24.592 25.9587 25.4079 25.5467 26.3646L23.1387 32.0186H27.8717L28.6997 30.0886C28.9041 29.6117 29.1766 29.1671 29.5087 28.7686C29.8382 28.3689 30.227 28.0222 30.6617 27.7406C31.5312 27.1672 32.5492 26.8603 33.5907 26.8576H47.8077C53.7497 26.9366 59.1757 22.1806 60.5617 16.7266C59.2427 18.6987 57.459 20.3162 55.3677 21.4366C53.2747 22.5522 50.9394 23.136 48.5677 23.1366L48.5627 23.1376Z" fill="#8C52FF"/>
<path d="M39.2974 40.5876H23.2614C22.1386 40.5861 21.0403 40.9162 20.1044 41.5366C19.1691 42.1556 18.4352 43.0347 17.9934 44.0656L11.4004 59.5166C13.8004 59.5446 16.6404 58.0336 17.3004 56.7456L21.1274 47.7906C21.3461 47.2764 21.6389 46.797 21.9964 46.3676C22.353 45.9392 22.7712 45.5662 23.2374 45.2606C23.7024 44.9499 24.2119 44.7116 24.7484 44.5536C25.2821 44.392 25.8368 44.3105 26.3944 44.3116H40.1944C43.3917 44.1806 46.4191 42.8365 48.6606 40.5527C50.9021 38.2688 52.1893 35.2168 52.2604 32.0176C51.1761 34.5601 49.3684 36.7279 47.0621 38.2514C44.7558 39.775 42.0525 40.587 39.2884 40.5866L39.2974 40.5876Z" fill="#8C52FF"/>
</svg>
